Normalized EMG Linear Envelopes
nRows=124
nColumns=4

endheader
time	 med_gas_r	  soleus_r	 tib_ant_r	
3.00605	  0.114146	  0.055955	  0.015626	
3.07762	  0.099261	  0.049283	  0.016063	
3.14919	  0.089639	  0.044821	  0.016525	
3.22077	  0.085626	  0.042892	  0.017161	
3.29234	  0.084640	  0.042497	  0.017641	
3.36391	  0.085044	  0.042811	  0.017340	
3.43548	  0.086097	  0.043502	  0.016547	
3.50706	  0.086950	  0.044435	  0.016545	
3.57863	  0.087139	  0.045859	  0.018308	
3.6502	  0.086779	  0.048530	  0.021561	
3.72177	  0.086322	  0.052323	  0.024786	
3.79335	  0.086735	  0.055081	  0.026216	
3.86492	  0.089004	  0.054707	  0.025214	
3.93649	  0.092237	  0.051813	  0.022590	
4.00806	  0.093450	  0.049030	  0.019702	
4.07964	  0.091019	  0.048227	  0.017438	
4.15121	  0.086915	  0.049031	  0.015980	
4.22278	  0.083740	  0.050250	  0.015206	
4.29435	  0.081933	  0.051547	  0.014923	
4.36593	  0.082014	  0.052685	  0.014974	
4.4375	  0.085806	  0.053012	  0.015571	
4.50907	  0.092826	  0.052471	  0.017132	
4.58065	  0.099387	  0.051340	  0.019347	
4.65222	  0.102260	  0.049798	  0.021162	
4.72379	  0.100811	  0.048668	  0.022057	
4.79536	  0.096611	  0.048122	  0.022242	
4.86694	  0.091166	  0.046206	  0.021655	
4.93851	  0.083523	  0.041186	  0.019900	
5.01008	  0.074241	  0.034968	  0.017356	
5.08165	  0.076179	  0.035851	  0.016218	
5.15323	  0.120057	  0.060142	  0.020076	
5.2248	  0.234846	  0.123594	  0.031539	
5.29637	  0.401670	  0.219060	  0.048842	
5.36794	  0.541775	  0.308615	  0.065024	
5.43952	  0.586352	  0.354739	  0.073659	
5.51109	  0.542851	  0.354126	  0.075109	
5.58266	  0.469493	  0.330878	  0.073947	
5.65423	  0.414861	  0.308333	  0.073047	
5.72581	  0.393739	  0.294742	  0.073001	
5.79738	  0.394706	  0.287153	  0.073841	
5.86895	  0.400182	  0.281006	  0.075277	
5.94052	  0.401448	  0.274680	  0.076219	
6.0121	  0.399878	  0.269016	  0.075184	
6.08367	  0.404498	  0.267214	  0.072595	
6.15524	  0.426958	  0.276233	  0.071258	
6.22681	  0.468947	  0.303326	  0.072845	
6.29839	  0.514925	  0.345660	  0.075988	
6.36996	  0.542000	  0.389189	  0.078765	
6.44153	  0.539516	  0.420888	  0.081265	
6.5131	  0.518494	  0.434432	  0.084995	
6.58468	  0.498120	  0.428761	  0.090083	
6.65625	  0.485665	  0.410027	  0.094061	
6.72782	  0.477159	  0.390257	  0.094398	
6.7994	  0.473879	  0.380385	  0.091910	
6.87097	  0.485402	  0.385403	  0.090017	
6.94254	  0.517895	  0.404500	  0.090213	
7.01411	  0.567733	  0.431114	  0.090933	
7.08569	  0.621165	  0.453980	  0.091413	
7.15726	  0.658779	  0.465400	  0.092908	
7.22883	  0.671119	  0.466425	  0.095928	
7.3004	  0.668120	  0.462292	  0.099510	
7.37198	  0.662849	  0.456309	  0.102121	
7.44355	  0.655184	  0.445643	  0.101729	
7.51512	  0.641807	  0.425583	  0.097308	
7.58669	  0.625357	  0.401465	  0.090611	
7.65827	  0.605260	  0.387689	  0.084751	
7.72984	  0.579949	  0.391827	  0.081780	
7.80141	  0.563249	  0.408495	  0.082538	
7.87298	  0.579100	  0.429658	  0.087188	
7.94456	  0.632828	  0.453331	  0.094885	
8.01613	  0.699153	  0.478504	  0.103829	
8.0877	  0.746256	  0.496724	  0.111805	
8.15927	  0.761207	  0.498447	  0.116509	
8.23085	  0.748367	  0.484528	  0.116447	
8.30242	  0.721175	  0.463378	  0.112279	
8.37399	  0.697548	  0.442166	  0.107258	
8.44556	  0.686775	  0.423706	  0.105167	
8.51714	  0.680078	  0.408371	  0.105970	
8.58871	  0.665502	  0.397351	  0.105146	
8.66028	  0.649237	  0.391474	  0.099624	
8.73185	  0.647685	  0.388570	  0.092069	
8.80343	  0.662897	  0.385237	  0.087716	
8.875	  0.680579	  0.380021	  0.089528	
8.94657	  0.687234	  0.374889	  0.096639	
9.01815	  0.680215	  0.374152	  0.104949	
9.08972	  0.669219	  0.380255	  0.110003	
9.16129	  0.670121	  0.389854	  0.110893	
9.23286	  0.682250	  0.395300	  0.109608	
9.30444	  0.680125	  0.391545	  0.107082	
9.37601	  0.648079	  0.380585	  0.102814	
9.44758	  0.605238	  0.368450	  0.097361	
9.51915	  0.579038	  0.360056	  0.092852	
9.59073	  0.574173	  0.356602	  0.091105	
9.6623	  0.579183	  0.356078	  0.092161	
9.73387	  0.585322	  0.355567	  0.094483	
9.80544	  0.588414	  0.353720	  0.096032	
9.87702	  0.582135	  0.351907	  0.095442	
9.94859	  0.557177	  0.350488	  0.091978	
10.0202	  0.507101	  0.341742	  0.084745	
10.0917	  0.430449	  0.308942	  0.072928	
10.1633	  0.330729	  0.242368	  0.057343	
10.2349	  0.224754	  0.158961	  0.041686	
10.3065	  0.140076	  0.091163	  0.030316	
10.378	  0.092713	  0.055598	  0.024375	
10.4496	  0.077522	  0.045586	  0.021981	
10.5212	  0.080024	  0.046683	  0.021179	
10.5927	  0.087594	  0.048818	  0.020950	
10.6643	  0.092916	  0.048950	  0.020654	
10.7359	  0.093672	  0.048156	  0.020137	
10.8075	  0.090851	  0.047819	  0.019930	
10.879	  0.087223	  0.048373	  0.020272	
10.9506	  0.085249	  0.049317	  0.020414	
11.0222	  0.085094	  0.049707	  0.019642	
11.0937	  0.085120	  0.049016	  0.018378	
11.1653	  0.083925	  0.047406	  0.017833	
11.2369	  0.081439	  0.045657	  0.018775	
11.3085	  0.078978	  0.044453	  0.020711	
11.38	  0.078244	  0.043545	  0.022263	
11.4516	  0.079776	  0.042597	  0.022310	
11.5232	  0.082398	  0.042176	  0.020739	
11.5948	  0.083739	  0.042937	  0.018378	
11.6663	  0.081894	  0.044812	  0.016491	
11.7379	  0.077296	  0.047338	  0.016010	
11.8095	  0.071739	  0.050085	  0.016760	
